<svg width="178" height="49" viewBox="0 0 178 49" fill="none" xmlns="http://www.w3.org/2000/svg">
<path d="M74 0H68V22H74V0Z" fill="#3E0BCF"/>
<path fill-rule="evenodd" clip-rule="evenodd" d="M77 22L86.5 0H90L99.5 22H94L92.5 19H83.5L82 22H77ZM88 9.5L86 14H90.5L88 9.5Z" fill="#3E0BCF"/>
<path d="M0 0V22H6V11L11.5 15.5L17.5 11V22H23V0H20L11.5 8L3 0H0Z" fill="#3E0BCF"/>
<path d="M27.5 22V0H41V4.5H33V8H40.5V13H33V17H41V22H27.5Z" fill="#3E0BCF"/>
<path d="M21 48V26H34.5V30.5H26.5V34H34V39H26.5V43H34.5V48H21Z" fill="#3E0BCF"/>
<path fill-rule="evenodd" clip-rule="evenodd" d="M45 22V0H56C61 0 64.5 5.8 64.5 11C64.5 16.2 61 22 56 22H45ZM58.5 10.5C58.5 9.7 58 6 54 6H51V16H54C58.5 16 58.5 11.3 58.5 10.5Z" fill="#3E0BCF"/>
<path d="M115.5 7H110.5C110.5 5.10072 109 5 108.5 5C108 5 106 4.91406 106 6.5C106 8.08594 108 8 108.5 8C109 8 115.5 10 115.5 15C115.5 21.0133 110.833 22.1667 108.5 22C102.5 22 101 17.5 101 15.5H106C106 15.5 107 17 108.5 17C109.7 17 110.5 16 110.5 15C110.5 14 109 13.5 108.5 13.5C108 13.5 101 13.5 101 6.5C101 5 102.5 0 108 0C112.4 0 114.833 3.33333 115.5 5V7Z" fill="#3E0BCF"/>
<path d="M53.5 33H48.5C48.5 31.1007 47 31 46.5 31C46 31 44 30.9141 44 32.5C44 34.0859 46 34 46.5 34C47 34 53.5 36 53.5 41C53.5 47.0133 48.8333 48.1667 46.5 48C40.5 48 39 43.5 39 41.5H44C44 41.5 45 43 46.5 43C47.7 43 48.5 42 48.5 41C48.5 40 47 39.5 46.5 39.5C46 39.5 39 39.5 39 32.5C39 31 40.5 26 46 26C50.4 26 52.8333 29.3333 53.5 31V33Z" fill="#3E0BCF"/>
<path d="M137.5 11C137.5 6.5 134 3 129 3C124 3 120.5 6.5 120.5 11C120.5 15.5 124 19 129 19C134 19 137.5 15.5 137.5 11Z" stroke="#3E0BCF" stroke-width="6"/>
<path d="M150 22H144V0H158V5H150V8.5H156.5V13.5H150V22Z" fill="#3E0BCF"/>
<path d="M173 22H167V6H161.5V0H178V6H173V22Z" fill="#3E0BCF"/>
<path d="M11.5 48H5.5V32H0V26H16.5V32H11.5V48Z" fill="#3E0BCF"/>
<path d="M69.5 48H63.5V32H58V26H74.5V32H69.5V48Z" fill="#3E0BCF"/>
</svg>
