<svg width="178" height="52" viewBox="0 0 178 52" fill="none" xmlns="http://www.w3.org/2000/svg">
<path d="M74 4H68V25.551H74V4Z" fill="#3E0BCF"/>
<path fill-rule="evenodd" clip-rule="evenodd" d="M77 25.551L86.5 4H90L99.5 25.551H94L92.5 22.6122H83.5L82 25.551H77ZM88 13.3061L86 17.7143H90.5L88 13.3061Z" fill="#3E0BCF"/>
<path d="M0 4V25.551H6V14.7755L11.5 19.1837L17.5 14.7755V25.551H23V4H20L11.5 11.8367L3 4H0Z" fill="#3E0BCF"/>
<path d="M27.5 25.551V4H41V8.40816H33V11.8367H40.5V16.7347H33V20.6531H41V25.551H27.5Z" fill="#3E0BCF"/>
<path d="M21 51.0204V29.4694H34.5V33.8776H26.5V37.3061H34V42.2041H26.5V46.1224H34.5V51.0204H21Z" fill="#3E0BCF"/>
<path fill-rule="evenodd" clip-rule="evenodd" d="M45 25.551V4H56C61 4 64.5 9.68163 64.5 14.7755C64.5 19.8694 61 25.551 56 25.551H45ZM58.5 14.2857C58.5 13.502 58 9.87755 54 9.87755H51V19.6735H54C58.5 19.6735 58.5 15.0694 58.5 14.2857Z" fill="#3E0BCF"/>
<path d="M115.5 10.8571H110.5C110.5 8.99662 109 8.89796 108.5 8.89796C108 8.89796 106 8.81377 106 10.3673C106 11.9209 108 11.8367 108.5 11.8367C109 11.8367 115.5 13.7959 115.5 18.6939C115.5 24.5845 110.833 25.7143 108.5 25.551C102.5 25.551 101 21.1429 101 19.1837H106C106 19.1837 107 20.6531 108.5 20.6531C109.7 20.6531 110.5 19.6735 110.5 18.6939C110.5 17.7143 109 17.2245 108.5 17.2245C108 17.2245 101 17.2245 101 10.3673C101 8.89796 102.5 4 108 4C112.4 4 114.833 7.2653 115.5 8.89796V10.8571Z" fill="#3E0BCF"/>
<path d="M53.5 36.3265H48.5C48.5 34.466 47 34.3673 46.5 34.3673C46 34.3673 44 34.2832 44 35.8367C44 37.3903 46 37.3061 46.5 37.3061C47 37.3061 53.5 39.2653 53.5 44.1633C53.5 50.0538 48.8333 51.1837 46.5 51.0204C40.5 51.0204 39 46.6122 39 44.6531H44C44 44.6531 45 46.1224 46.5 46.1224C47.7 46.1224 48.5 45.1429 48.5 44.1633C48.5 43.1837 47 42.6939 46.5 42.6939C46 42.6939 39 42.6939 39 35.8367C39 34.3673 40.5 29.4694 46 29.4694C50.4 29.4694 52.8333 32.7347 53.5 34.3673V36.3265Z" fill="#3E0BCF"/>
<path d="M150 25.551H144V4H158V8.89796H150V12.3265H156.5V17.2245H150V25.551Z" fill="#3E0BCF"/>
<path d="M173 25.551H167V9.87755H161.5V4H178V9.87755H173V25.551Z" fill="#3E0BCF"/>
<path d="M11.5 51.0204H5.5V35.3469H0V29.4694H16.5V35.3469H11.5V51.0204Z" fill="#3E0BCF"/>
<path d="M69.5 51.0204H63.5V35.3469H58V29.4694H74.5V35.3469H69.5V51.0204Z" fill="#3E0BCF"/>
<path d="M130 10.0001C130 10.0001 124 10.0521 124 15.0261C124 20.0001 130 20.0001 130 20.0001V26.0001C130 26.0001 118 26.0522 118 15.0261C118 4 130 4.00013 130 4.00013V10.0001Z" fill="#3E0BCF"/>
<path d="M130 10.0003C130 10.0003 136 10.0522 136 15.0262C136 20.0003 130 20.0003 130 20.0003V26.0003C130 26.0003 142 26.0523 142 15.0262C142 4.00013 130 4.00026 130 4.00026V10.0003Z" fill="#3E0BCF"/>
</svg>
